<svg width="36" height="34" viewBox="0 0 36 34" fill="none" xmlns="http://www.w3.org/2000/svg">
<g filter="url(#filter0_d_191_813)">
<g opacity="0.5">
<path opacity="0.4" fill-rule="evenodd" clip-rule="evenodd" d="M9.91064 22.5886C9.91064 21.7486 10.5906 21.0686 11.4306 21.0686C12.2606 21.0686 12.9406 21.7486 12.9406 22.5886C12.9406 23.4186 12.2606 24.0986 11.4306 24.0986C10.5906 24.0986 9.91064 23.4186 9.91064 22.5886ZM21.1606 22.5886C21.1606 21.7486 21.8406 21.0686 22.6806 21.0686C23.5106 21.0686 24.1906 21.7486 24.1906 22.5886C24.1906 23.4186 23.5106 24.0986 22.6806 24.0986C21.8406 24.0986 21.1606 23.4186 21.1606 22.5886Z" fill="url(#paint0_linear_191_813)"/>
<path fill-rule="evenodd" clip-rule="evenodd" d="M24.1907 8.34909C24.8007 8.34909 25.2007 8.55909 25.6007 9.01909C26.0007 9.47909 26.0707 10.1391 25.9807 10.7381L25.0307 17.2981C24.8507 18.5591 23.7707 19.4881 22.5007 19.4881H11.5907C10.2607 19.4881 9.16074 18.4681 9.05074 17.1491L8.13074 6.24809L6.62074 5.98809C6.22074 5.91809 5.94074 5.52809 6.01074 5.12809C6.08074 4.71809 6.47074 4.44809 6.88074 4.50809L9.26574 4.86809C9.60574 4.92909 9.85574 5.20809 9.88574 5.54809L10.0757 7.78809C10.1057 8.10909 10.3657 8.34909 10.6857 8.34909H24.1907ZM18.1307 13.5481H20.9007C21.3207 13.5481 21.6507 13.2081 21.6507 12.7981C21.6507 12.3781 21.3207 12.0481 20.9007 12.0481H18.1307C17.7107 12.0481 17.3807 12.3781 17.3807 12.7981C17.3807 13.2081 17.7107 13.5481 18.1307 13.5481Z" fill="url(#paint1_linear_191_813)"/>
</g>
<circle cx="25.5" cy="6.5" r="6" fill="#FF4B4B" stroke="white"/>
<path d="M23.729 10H25.205L27.77 4.42V3.34H23.108V4.519H26.276L23.729 10Z" fill="white"/>
</g>
<defs>
<filter id="filter0_d_191_813" x="0" y="0" width="36" height="34" filterUnits="userSpaceOnUse" color-interpolation-filters="sRGB">
<feFlood flood-opacity="0" result="BackgroundImageFix"/>
<feColorMatrix in="SourceAlpha" type="matrix" values="0 0 0 0 0 0 0 0 0 0 0 0 0 0 0 0 0 0 127 0" result="hardAlpha"/>
<feOffset dy="4"/>
<feGaussianBlur stdDeviation="2"/>
<feComposite in2="hardAlpha" operator="out"/>
<feColorMatrix type="matrix" values="0 0 0 0 0 0 0 0 0 0 0 0 0 0 0 0 0 0 0.25 0"/>
<feBlend mode="normal" in2="BackgroundImageFix" result="effect1_dropShadow_191_813"/>
<feBlend mode="normal" in="SourceGraphic" in2="effect1_dropShadow_191_813" result="shape"/>
</filter>
<linearGradient id="paint0_linear_191_813" x1="9.91064" y1="20.8826" x2="20.9209" y2="28.9221" gradientUnits="userSpaceOnUse">
<stop stop-color="#53E88B"/>
<stop offset="1" stop-color="#15BE77"/>
</linearGradient>
<linearGradient id="paint1_linear_191_813" x1="6" y1="3.57942" x2="28.6895" y2="8.27392" gradientUnits="userSpaceOnUse">
<stop stop-color="#53E88B"/>
<stop offset="1" stop-color="#15BE77"/>
</linearGradient>
</defs>
</svg>
