<svg width="105" height="44" viewBox="0 0 105 44" fill="none" xmlns="http://www.w3.org/2000/svg">
<rect opacity="0.1" width="105" height="44" rx="12" fill="url(#paint0_linear_191_811)"/>
<path d="M57.476 25.168C59.528 25.168 60.62 23.98 61.052 22.216L59.624 21.892C59.288 23.224 58.64 23.8 57.488 23.8C55.988 23.8 55.088 22.636 55.088 20.524C55.088 18.508 55.964 17.344 57.464 17.344C58.64 17.344 59.156 17.944 59.492 19.12L60.92 18.712C60.524 17.092 59.54 15.952 57.476 15.952C55.244 15.952 53.576 17.56 53.576 20.536C53.576 23.596 55.196 25.168 57.476 25.168ZM62.4296 25H63.9176V20.596C64.4576 20.104 64.9976 19.768 65.6456 19.768C66.2936 19.768 66.5936 20.092 66.5936 20.8V25H68.0816V20.428C68.0816 19.168 67.3616 18.508 66.2456 18.508C65.0936 18.508 64.3256 19.06 63.9176 19.492V16.12H62.4296V25ZM71.052 25.096C72 25.096 72.756 24.844 73.404 24.184C73.404 24.544 73.464 24.736 73.548 25H75.036C74.904 24.676 74.856 24.208 74.856 23.44V20.812C74.856 19.324 74.268 18.508 72.564 18.508C71.244 18.508 70.176 19.036 69.492 19.66L70.212 20.584C70.752 20.152 71.472 19.72 72.36 19.72C73.068 19.72 73.404 19.996 73.404 20.632V20.824C70.428 21.16 69.252 22.084 69.252 23.464C69.252 24.52 70.02 25.096 71.052 25.096ZM71.592 23.956C71.052 23.956 70.704 23.692 70.704 23.188C70.704 22.492 71.64 22.06 73.404 21.82V23.224C72.936 23.668 72.348 23.956 71.592 23.956ZM78.9172 25.084C79.2892 25.084 79.8412 25.036 79.9972 25V23.836C79.8532 23.884 79.5772 23.92 79.3612 23.92C78.6292 23.92 78.4252 23.644 78.4252 22.96V19.804H80.0692V18.628H78.4252V16.408H76.9492V18.628H75.8452V19.804H76.9492V23.332C76.9492 24.484 77.2972 25.084 78.9172 25.084Z" fill="#09051C"/>
<path d="M25.02 12C19.21 12 15 16.74 15 22C15 23.68 15.49 25.41 16.35 26.99C16.51 27.25 16.53 27.58 16.42 27.89L15.75 30.13C15.6 30.67 16.06 31.07 16.57 30.91L18.59 30.31C19.14 30.13 19.57 30.36 20.081 30.67C21.541 31.53 23.36 31.97 25 31.97C29.96 31.97 35 28.14 35 21.97C35 16.65 30.7 12 25.02 12Z" fill="url(#paint1_linear_191_811)"/>
<path fill-rule="evenodd" clip-rule="evenodd" d="M24.9807 23.2901C24.2707 23.2801 23.7007 22.7101 23.7007 22.0001C23.7007 21.3001 24.2807 20.7201 24.9807 20.7301C25.6907 20.7301 26.2607 21.3001 26.2607 22.0101C26.2607 22.7101 25.6907 23.2901 24.9807 23.2901ZM20.3703 23.2901C19.6703 23.2901 19.0903 22.7101 19.0903 22.0101C19.0903 21.3001 19.6603 20.7301 20.3703 20.7301C21.0803 20.7301 21.6503 21.3001 21.6503 22.0101C21.6503 22.7101 21.0803 23.2801 20.3703 23.2901ZM28.3105 22.0101C28.3105 22.7101 28.8805 23.2901 29.5905 23.2901C30.3005 23.2901 30.8705 22.7101 30.8705 22.0101C30.8705 21.3001 30.3005 20.7301 29.5905 20.7301C28.8805 20.7301 28.3105 21.3001 28.3105 22.0101Z" fill="white"/>
<circle cx="34.5" cy="14.5" r="6" fill="#FF4B4B" stroke="white"/>
<defs>
<linearGradient id="paint0_linear_191_811" x1="-1.48896e-07" y1="-2.70175" x2="109.195" y2="37.6712" gradientUnits="userSpaceOnUse">
<stop stop-color="#53E88B"/>
<stop offset="1" stop-color="#15BE77"/>
</linearGradient>
<linearGradient id="paint1_linear_191_811" x1="15" y1="10.7738" x2="38.0865" y2="14.3561" gradientUnits="userSpaceOnUse">
<stop stop-color="#53E88B"/>
<stop offset="1" stop-color="#15BE77"/>
</linearGradient>
</defs>
</svg>
